<svg width="32" height="32" viewBox="0 0 32 32" fill="none" xmlns="http://www.w3.org/2000/svg">
<path d="M16 24C20.4183 24 24 20.4183 24 16C24 11.5817 20.4183 8 16 8C11.5817 8 8 11.5817 8 16C8 20.4183 11.5817 24 16 24Z" stroke="#4C2600" stroke-width="2"/>
<path d="M6.1005 6.1005L8.22183 8.22183M16 2V5V2ZM25.8995 6.1005L23.7782 8.22183L25.8995 6.1005ZM30 16H27H30ZM25.8995 25.8995L23.7782 23.7782L25.8995 25.8995ZM16 30V27V30ZM6.1005 25.8995L8.22183 23.7782L6.1005 25.8995ZM2 16H5H2Z" stroke="#4C2600" stroke-width="2"/>
</svg>
