<svg width="48" height="48" viewBox="0 0 48 48" fill="none" xmlns="http://www.w3.org/2000/svg">
<path d="M11.4324 21.7297C10.0865 21.7297 9 22.8162 9 24.1622C9 25.5081 10.0865 26.5946 11.4324 26.5946C12.7784 26.5946 13.8649 25.5081 13.8649 24.1622C13.8649 22.8162 12.7784 21.7297 11.4324 21.7297ZM11.4324 12C10.0865 12 9 13.0865 9 14.4324C9 15.7784 10.0865 16.8649 11.4324 16.8649C12.7784 16.8649 13.8649 15.7784 13.8649 14.4324C13.8649 13.0865 12.7784 12 11.4324 12ZM11.4324 31.727C10.2405 31.727 9.26757 32.6919 9.26757 33.8919C9.26757 35.0919 10.2405 36.0568 11.4324 36.0568C12.6243 36.0568 13.5973 35.0919 13.5973 33.8919C13.5973 32.6919 12.6243 31.727 11.4324 31.727ZM16.2973 35.5135H39V32.2703H16.2973V35.5135ZM16.2973 25.7838H39V22.5405H16.2973V25.7838ZM16.2973 12.8108V16.0541H39V12.8108H16.2973Z" fill="#4C2600"/>
</svg>
