<svg width="64" height="64" viewBox="0 0 64 64" fill="none" xmlns="http://www.w3.org/2000/svg">
<path d="M62.869 16.842H62.812C61.716 16.849 61.546 15.897 61.527 15.455V8.54199C61.527 7.80399 60.929 7.20599 60.193 7.20599H40.428C35.469 7.20599 33.619 9.04399 33.16 9.62099L33.034 9.79599L33.033 9.79899L32.642 10.335C32.641 10.335 32.641 10.335 32.641 10.335C32.116 11.056 31.659 10.749 31.439 10.513L30.691 9.57999L30.321 9.13399C29.699 8.48099 28.078 7.20599 24.865 7.20599H3.80803C3.07003 7.20599 2.47203 7.80399 2.47203 8.54199V15.367C2.47203 16.562 1.82303 16.802 1.42503 16.842H1.12903C0.805025 16.862 0.0510254 17.05 0.0510254 18.437V50.966C0.0510254 51.764 0.698025 52.41 1.49603 52.41H20.714C26.845 52.41 29.517 54.722 30.318 55.609L30.775 56.175H30.776C30.776 56.175 32.002 57.562 33.294 56.175L33.562 55.861V55.862L33.566 55.859L33.908 55.459C33.918 55.447 34 55.355 34.119 55.233C35.142 54.238 37.699 52.41 42.699 52.41H62.504C63.303 52.41 63.949 51.764 63.949 50.966V18.122C63.949 16.946 63.098 16.848 62.869 16.842ZM58.551 45.862C58.551 46.503 58.016 47.02 57.35 47.02H41.055C35.256 47.02 33.151 49.64 33.151 49.64L32.884 49.998L32.759 50.171C32.758 50.171 32.758 50.171 32.758 50.171C32.205 50.922 31.392 50.177 31.388 50.173L31.013 49.704C30.735 49.37 28.605 47.019 23.45 47.019H6.65003C5.98703 47.019 5.45103 46.501 5.45103 45.861V11.199C5.45103 10.559 5.98703 10.041 6.65003 10.041H19.693C29.395 10.041 30.314 15.552 30.377 17.153V41.259C30.377 43.011 31.212 43.34 31.683 43.388H32.384C32.864 43.34 33.627 43.055 33.627 41.688V16.842H33.619C33.691 14.837 34.473 10.04 40.308 10.04H57.35C58.016 10.04 58.551 10.558 58.551 11.198V45.862Z" fill="#241F20"/>
<path d="M28.2857 29.8571C26.9286 27.75 25.2277 26.1741 23.183 25.1295C23.7277 26.058 24 27.0625 24 28.1429C24 29.7946 23.4129 31.2076 22.2388 32.3817C21.0647 33.5558 19.6518 34.1429 18 34.1429C16.3482 34.1429 14.9353 33.5558 13.7612 32.3817C12.5871 31.2076 12 29.7946 12 28.1429C12 27.0625 12.2723 26.058 12.817 25.1295C10.7723 26.1741 9.07143 27.75 7.71429 29.8571C8.90179 31.6875 10.3906 33.1451 12.1808 34.2299C13.971 35.3147 15.9107 35.8571 18 35.8571C20.0893 35.8571 22.029 35.3147 23.8192 34.2299C25.6094 33.1451 27.0982 31.6875 28.2857 29.8571ZM18.6429 24.7143C18.6429 24.5357 18.5804 24.3839 18.4554 24.2589C18.3304 24.1339 18.1786 24.0714 18 24.0714C16.8839 24.0714 15.9263 24.471 15.1272 25.2701C14.3281 26.0692 13.9286 27.0268 13.9286 28.1429C13.9286 28.3214 13.9911 28.4732 14.1161 28.5982C14.2411 28.7232 14.3929 28.7857 14.5714 28.7857C14.75 28.7857 14.9018 28.7232 15.0268 28.5982C15.1518 28.4732 15.2143 28.3214 15.2143 28.1429C15.2143 27.375 15.4866 26.7188 16.0313 26.1741C16.5759 25.6295 17.2321 25.3571 18 25.3571C18.1786 25.3571 18.3304 25.2946 18.4554 25.1696C18.5804 25.0446 18.6429 24.8929 18.6429 24.7143ZM30 29.8571C30 30.1607 29.9107 30.4688 29.7321 30.7813C28.4821 32.8348 26.8013 34.4799 24.6897 35.7165C22.5781 36.9531 20.3482 37.5714 18 37.5714C15.6518 37.5714 13.4219 36.9509 11.3103 35.7098C9.19866 34.4688 7.51786 32.8259 6.26786 30.7813C6.08929 30.4688 6 30.1607 6 29.8571C6 29.5536 6.08929 29.2455 6.26786 28.933C7.51786 26.8884 9.19866 25.2455 11.3103 24.0045C13.4219 22.7634 15.6518 22.1429 18 22.1429C20.3482 22.1429 22.5781 22.7634 24.6897 24.0045C26.8013 25.2455 28.4821 26.8884 29.7321 28.933C29.9107 29.2455 30 29.5536 30 29.8571Z" fill="black"/>
<path d="M56.2857 29.8571C54.9286 27.75 53.2277 26.1741 51.183 25.1295C51.7277 26.058 52 27.0625 52 28.1429C52 29.7946 51.4129 31.2076 50.2388 32.3817C49.0647 33.5558 47.6518 34.1429 46 34.1429C44.3482 34.1429 42.9353 33.5558 41.7612 32.3817C40.5871 31.2076 40 29.7946 40 28.1429C40 27.0625 40.2723 26.058 40.817 25.1295C38.7723 26.1741 37.0714 27.75 35.7143 29.8571C36.9018 31.6875 38.3906 33.1451 40.1808 34.2299C41.971 35.3147 43.9107 35.8571 46 35.8571C48.0893 35.8571 50.029 35.3147 51.8192 34.2299C53.6094 33.1451 55.0982 31.6875 56.2857 29.8571ZM46.6429 24.7143C46.6429 24.5357 46.5804 24.3839 46.4554 24.2589C46.3304 24.1339 46.1786 24.0714 46 24.0714C44.8839 24.0714 43.9263 24.471 43.1272 25.2701C42.3281 26.0692 41.9286 27.0268 41.9286 28.1429C41.9286 28.3214 41.9911 28.4732 42.1161 28.5982C42.2411 28.7232 42.3929 28.7857 42.5714 28.7857C42.75 28.7857 42.9018 28.7232 43.0268 28.5982C43.1518 28.4732 43.2143 28.3214 43.2143 28.1429C43.2143 27.375 43.4866 26.7188 44.0313 26.1741C44.5759 25.6295 45.2321 25.3571 46 25.3571C46.1786 25.3571 46.3304 25.2946 46.4554 25.1696C46.5804 25.0446 46.6429 24.8929 46.6429 24.7143ZM58 29.8571C58 30.1607 57.9107 30.4688 57.7321 30.7813C56.4821 32.8348 54.8013 34.4799 52.6897 35.7165C50.5781 36.9531 48.3482 37.5714 46 37.5714C43.6518 37.5714 41.4219 36.9509 39.3103 35.7098C37.1987 34.4688 35.5179 32.8259 34.2679 30.7813C34.0893 30.4688 34 30.1607 34 29.8571C34 29.5536 34.0893 29.2455 34.2679 28.933C35.5179 26.8884 37.1987 25.2455 39.3103 24.0045C41.4219 22.7634 43.6518 22.1429 46 22.1429C48.3482 22.1429 50.5781 22.7634 52.6897 24.0045C54.8013 25.2455 56.4821 26.8884 57.7321 28.933C57.9107 29.2455 58 29.5536 58 29.8571Z" fill="black"/>
</svg>
