<svg width="32" height="32" viewBox="0 0 32 32" fill="none" xmlns="http://www.w3.org/2000/svg">
<path d="M6 4C5.45 4 5 4.45 5 5V27C5 27.55 5.45 28 6 28H9C9.55 28 10 27.55 10 27V5C10 4.45 9.55 4 9 4H6Z" fill="#4C2600"/>
<path d="M9 29H6C4.897 29 4 28.103 4 27V5C4 3.897 4.897 3 6 3H9C10.103 3 11 3.897 11 5V27C11 28.103 10.103 29 9 29ZM9 27V28V27ZM6 5V27H8.997L9 5H6Z" fill="#4C2600"/>
<path d="M23 4C22.45 4 22 4.45 22 5V27C22 27.55 22.45 28 23 28H26C26.55 28 27 27.55 27 27V5C27 4.45 26.55 4 26 4H23Z" fill="#4C2600"/>
<path d="M26 29H23C21.897 29 21 28.103 21 27V5C21 3.897 21.897 3 23 3H26C27.103 3 28 3.897 28 5V27C28 28.103 27.103 29 26 29ZM26 27V28V27ZM23 5V27H25.997L26 5H23Z" fill="#4C2600"/>
</svg>
