<svg width="32" height="32" viewBox="0 0 32 32" fill="none" xmlns="http://www.w3.org/2000/svg">
<path d="M29.5 14H27.1226C26.4456 8.73206 22.2679 4.55438 17 3.87744V1.5C17 0.67187 16.3286 0 15.5 0C14.6714 0 14 0.67188 14 1.5V3.87744C8.73206 4.55438 4.55438 8.73206 3.87744 14H1.5C0.67139 14 0 14.6719 0 15.5C0 16.3281 0.67139 17 1.5 17H3.87744C4.55438 22.2679 8.73206 26.4456 14 27.1226V29.5C14 30.3281 14.6714 31 15.5 31C16.3286 31 17 30.3281 17 29.5V27.1226C22.2679 26.4456 26.4456 22.268 27.1226 17H29.5C30.3286 17 31 16.3281 31 15.5C31 14.6719 30.3286 14 29.5 14ZM17 24.0912V21.959C17 21.1309 16.3286 20.459 15.5 20.459C14.6714 20.459 14 21.1309 14 21.959V24.0912C10.3886 23.4619 7.53809 20.6114 6.90881 17H9.04101C9.86962 17 10.541 16.3281 10.541 15.5C10.541 14.6719 9.86962 14 9.04101 14H6.90881C7.53808 10.3886 10.3886 7.53809 14 6.90881V9.04101C14 9.86914 14.6714 10.541 15.5 10.541C16.3286 10.541 17 9.86913 17 9.04101V6.90881C20.6114 7.53808 23.4619 10.3886 24.0912 14H21.959C21.1304 14 20.459 14.6719 20.459 15.5C20.459 16.3281 21.1304 17 21.959 17H24.0912C23.4619 20.6114 20.6114 23.4619 17 24.0912Z" fill="#4C2600"/>
<path d="M15.5 19C17.433 19 19 17.433 19 15.5C19 13.567 17.433 12 15.5 12C13.567 12 12 13.567 12 15.5C12 17.433 13.567 19 15.5 19Z" fill="#FF5F5F"/>
</svg>
